<mxfile host="app.diagrams.net" modified="2024-03-13T19:59:26.587Z" agent="Mozilla/5.0 (Windows NT 10.0; Win64; x64) AppleWebKit/537.36 (KHTML, like Gecko) Chrome/122.0.0.0 Safari/537.36" etag="ueO2naFzTR09upvKaNNe" version="24.0.6" type="device">
  <diagram id="K0n1DgKTCKIyx6t6Hrpo" name="Página-1">
    <mxGraphModel dx="1120" dy="468" grid="1" gridSize="10" guides="1" tooltips="1" connect="1" arrows="1" fold="1" page="1" pageScale="1" pageWidth="1100" pageHeight="850" math="0" shadow="0">
      <root>
        <mxCell id="0" />
        <mxCell id="1" parent="0" />
        <mxCell id="OsI7GfNumP7kP37vxXcr-12" style="edgeStyle=orthogonalEdgeStyle;rounded=0;orthogonalLoop=1;jettySize=auto;html=1;" parent="1" source="OsI7GfNumP7kP37vxXcr-1" target="OsI7GfNumP7kP37vxXcr-9" edge="1">
          <mxGeometry relative="1" as="geometry" />
        </mxCell>
        <mxCell id="OsI7GfNumP7kP37vxXcr-13" style="edgeStyle=orthogonalEdgeStyle;rounded=0;orthogonalLoop=1;jettySize=auto;html=1;" parent="1" source="OsI7GfNumP7kP37vxXcr-1" target="OsI7GfNumP7kP37vxXcr-10" edge="1">
          <mxGeometry relative="1" as="geometry" />
        </mxCell>
        <mxCell id="OsI7GfNumP7kP37vxXcr-1" value="Actor" style="shape=umlActor;verticalLabelPosition=bottom;verticalAlign=top;html=1;outlineConnect=0;" parent="1" vertex="1">
          <mxGeometry x="80" y="330" width="30" height="60" as="geometry" />
        </mxCell>
        <mxCell id="OsI7GfNumP7kP37vxXcr-14" style="edgeStyle=orthogonalEdgeStyle;rounded=0;orthogonalLoop=1;jettySize=auto;html=1;entryX=0;entryY=0;entryDx=0;entryDy=0;" parent="1" source="OsI7GfNumP7kP37vxXcr-2" target="OsI7GfNumP7kP37vxXcr-5" edge="1">
          <mxGeometry relative="1" as="geometry" />
        </mxCell>
        <mxCell id="OsI7GfNumP7kP37vxXcr-15" style="edgeStyle=orthogonalEdgeStyle;rounded=0;orthogonalLoop=1;jettySize=auto;html=1;exitX=1;exitY=0.3333333333333333;exitDx=0;exitDy=0;exitPerimeter=0;" parent="1" source="OsI7GfNumP7kP37vxXcr-2" target="OsI7GfNumP7kP37vxXcr-6" edge="1">
          <mxGeometry relative="1" as="geometry" />
        </mxCell>
        <mxCell id="21EikmVj7V0THhWPSEJV-2" style="edgeStyle=orthogonalEdgeStyle;rounded=0;orthogonalLoop=1;jettySize=auto;html=1;entryX=0;entryY=0.5;entryDx=0;entryDy=0;" edge="1" parent="1" source="OsI7GfNumP7kP37vxXcr-2" target="21EikmVj7V0THhWPSEJV-1">
          <mxGeometry relative="1" as="geometry">
            <Array as="points">
              <mxPoint x="80" y="250" />
              <mxPoint x="125" y="250" />
              <mxPoint x="125" y="255" />
            </Array>
          </mxGeometry>
        </mxCell>
        <mxCell id="OsI7GfNumP7kP37vxXcr-2" value="Actor" style="shape=umlActor;verticalLabelPosition=bottom;verticalAlign=top;html=1;outlineConnect=0;" parent="1" vertex="1">
          <mxGeometry x="80" y="120" width="30" height="60" as="geometry" />
        </mxCell>
        <mxCell id="OsI7GfNumP7kP37vxXcr-16" style="edgeStyle=orthogonalEdgeStyle;rounded=0;orthogonalLoop=1;jettySize=auto;html=1;entryX=1;entryY=0.5;entryDx=0;entryDy=0;" parent="1" source="OsI7GfNumP7kP37vxXcr-3" target="OsI7GfNumP7kP37vxXcr-7" edge="1">
          <mxGeometry relative="1" as="geometry" />
        </mxCell>
        <mxCell id="OsI7GfNumP7kP37vxXcr-19" style="edgeStyle=orthogonalEdgeStyle;rounded=0;orthogonalLoop=1;jettySize=auto;html=1;exitX=0;exitY=1;exitDx=0;exitDy=0;exitPerimeter=0;entryX=1;entryY=0.5;entryDx=0;entryDy=0;" parent="1" source="OsI7GfNumP7kP37vxXcr-3" target="OsI7GfNumP7kP37vxXcr-8" edge="1">
          <mxGeometry relative="1" as="geometry" />
        </mxCell>
        <mxCell id="OsI7GfNumP7kP37vxXcr-3" value="Actor" style="shape=umlActor;verticalLabelPosition=bottom;verticalAlign=top;html=1;outlineConnect=0;" parent="1" vertex="1">
          <mxGeometry x="600" y="110" width="30" height="60" as="geometry" />
        </mxCell>
        <mxCell id="OsI7GfNumP7kP37vxXcr-17" style="edgeStyle=orthogonalEdgeStyle;rounded=0;orthogonalLoop=1;jettySize=auto;html=1;" parent="1" source="OsI7GfNumP7kP37vxXcr-5" target="OsI7GfNumP7kP37vxXcr-7" edge="1">
          <mxGeometry relative="1" as="geometry" />
        </mxCell>
        <mxCell id="OsI7GfNumP7kP37vxXcr-5" value="realizar prova" style="ellipse;whiteSpace=wrap;html=1;" parent="1" vertex="1">
          <mxGeometry x="160" y="150" width="90" height="60" as="geometry" />
        </mxCell>
        <mxCell id="OsI7GfNumP7kP37vxXcr-6" value="consultar nota e frequência" style="ellipse;whiteSpace=wrap;html=1;" parent="1" vertex="1">
          <mxGeometry x="140" y="80" width="90" height="60" as="geometry" />
        </mxCell>
        <mxCell id="OsI7GfNumP7kP37vxXcr-20" style="edgeStyle=orthogonalEdgeStyle;rounded=0;orthogonalLoop=1;jettySize=auto;html=1;" parent="1" source="OsI7GfNumP7kP37vxXcr-7" target="OsI7GfNumP7kP37vxXcr-6" edge="1">
          <mxGeometry relative="1" as="geometry" />
        </mxCell>
        <mxCell id="OsI7GfNumP7kP37vxXcr-7" value="lançar notas e frequência" style="ellipse;whiteSpace=wrap;html=1;" parent="1" vertex="1">
          <mxGeometry x="440" y="90" width="90" height="60" as="geometry" />
        </mxCell>
        <mxCell id="OsI7GfNumP7kP37vxXcr-18" style="edgeStyle=orthogonalEdgeStyle;rounded=0;orthogonalLoop=1;jettySize=auto;html=1;entryX=1;entryY=1;entryDx=0;entryDy=0;" parent="1" source="OsI7GfNumP7kP37vxXcr-8" target="OsI7GfNumP7kP37vxXcr-5" edge="1">
          <mxGeometry relative="1" as="geometry" />
        </mxCell>
        <mxCell id="OsI7GfNumP7kP37vxXcr-8" value="Aplicar provas" style="ellipse;whiteSpace=wrap;html=1;" parent="1" vertex="1">
          <mxGeometry x="440" y="160" width="90" height="60" as="geometry" />
        </mxCell>
        <mxCell id="OsI7GfNumP7kP37vxXcr-9" value="consultar nota e frequencia" style="ellipse;whiteSpace=wrap;html=1;" parent="1" vertex="1">
          <mxGeometry x="150" y="390" width="90" height="60" as="geometry" />
        </mxCell>
        <mxCell id="21EikmVj7V0THhWPSEJV-3" style="edgeStyle=orthogonalEdgeStyle;rounded=0;orthogonalLoop=1;jettySize=auto;html=1;entryX=1;entryY=0.5;entryDx=0;entryDy=0;" edge="1" parent="1" source="OsI7GfNumP7kP37vxXcr-10" target="21EikmVj7V0THhWPSEJV-1">
          <mxGeometry relative="1" as="geometry">
            <Array as="points">
              <mxPoint x="265" y="300" />
              <mxPoint x="265" y="255" />
            </Array>
          </mxGeometry>
        </mxCell>
        <mxCell id="OsI7GfNumP7kP37vxXcr-10" value="realizar aprovação" style="ellipse;whiteSpace=wrap;html=1;" parent="1" vertex="1">
          <mxGeometry x="150" y="300" width="90" height="60" as="geometry" />
        </mxCell>
        <mxCell id="21EikmVj7V0THhWPSEJV-1" value="Verificar se foi aprovado" style="ellipse;whiteSpace=wrap;html=1;" vertex="1" parent="1">
          <mxGeometry x="145" y="230" width="100" height="50" as="geometry" />
        </mxCell>
      </root>
    </mxGraphModel>
  </diagram>
</mxfile>
